<mxfile host="app.diagrams.net" modified="2024-04-24T16:27:08.619Z" agent="Mozilla/5.0 (Windows NT 10.0; Win64; x64) AppleWebKit/537.36 (KHTML, like Gecko) Chrome/124.0.0.0 Safari/537.36" etag="mpotbw14NR_Lr7nt166-" version="22.1.18" type="device">
  <diagram name="Page-1" id="MsWiOv0lLL9a0l-WdyNy">
    <mxGraphModel dx="1500" dy="796" grid="1" gridSize="10" guides="1" tooltips="1" connect="1" arrows="1" fold="1" page="1" pageScale="1" pageWidth="850" pageHeight="1100" math="0" shadow="0">
      <root>
        <mxCell id="0" />
        <mxCell id="1" parent="0" />
        <mxCell id="4oGWHnDfo1bWH9J24VEy-10" value="" style="edgeStyle=orthogonalEdgeStyle;rounded=0;orthogonalLoop=1;jettySize=auto;html=1;entryX=0;entryY=0.25;entryDx=0;entryDy=0;" edge="1" parent="1" source="DUCyk8mWqJSVbmoER8uC-41" target="h4LoOMoCMPn4u95U5Gyn-5">
          <mxGeometry relative="1" as="geometry">
            <mxPoint x="355.0000000000002" y="165" as="targetPoint" />
            <Array as="points">
              <mxPoint x="355" y="128" />
              <mxPoint x="356" y="235" />
            </Array>
          </mxGeometry>
        </mxCell>
        <mxCell id="DUCyk8mWqJSVbmoER8uC-41" value="" style="ellipse;whiteSpace=wrap;html=1;aspect=fixed;strokeColor=#000000;fillColor=#000000;" parent="1" vertex="1">
          <mxGeometry x="330" y="40" width="50" height="50" as="geometry" />
        </mxCell>
        <mxCell id="h4LoOMoCMPn4u95U5Gyn-1" value="Home" style="rounded=1;whiteSpace=wrap;html=1;" parent="1" vertex="1">
          <mxGeometry x="100" y="90" width="120" height="60" as="geometry" />
        </mxCell>
        <mxCell id="h4LoOMoCMPn4u95U5Gyn-5" value="Login" style="rounded=1;whiteSpace=wrap;html=1;" parent="1" vertex="1">
          <mxGeometry x="413" y="220" width="120" height="60" as="geometry" />
        </mxCell>
        <mxCell id="h4LoOMoCMPn4u95U5Gyn-6" value="" style="rhombus;whiteSpace=wrap;html=1;" parent="1" vertex="1">
          <mxGeometry x="458" y="322.90999999999997" width="30" height="50" as="geometry" />
        </mxCell>
        <mxCell id="h4LoOMoCMPn4u95U5Gyn-7" value="" style="endArrow=classic;html=1;rounded=0;fontSize=12;startSize=8;endSize=8;curved=1;exitX=0.5;exitY=1;exitDx=0;exitDy=0;entryX=0.5;entryY=0;entryDx=0;entryDy=0;" parent="1" source="h4LoOMoCMPn4u95U5Gyn-5" target="h4LoOMoCMPn4u95U5Gyn-6" edge="1">
          <mxGeometry width="50" height="50" relative="1" as="geometry">
            <mxPoint x="450" y="430" as="sourcePoint" />
            <mxPoint x="473" y="330" as="targetPoint" />
          </mxGeometry>
        </mxCell>
        <mxCell id="h4LoOMoCMPn4u95U5Gyn-8" value="Authentication failed" style="rounded=1;whiteSpace=wrap;html=1;" parent="1" vertex="1">
          <mxGeometry x="590" y="312.90999999999997" width="120" height="60" as="geometry" />
        </mxCell>
        <mxCell id="h4LoOMoCMPn4u95U5Gyn-10" value="" style="endArrow=classic;html=1;rounded=0;fontSize=12;startSize=8;endSize=8;curved=1;exitX=0;exitY=0.5;exitDx=0;exitDy=0;" parent="1" source="h4LoOMoCMPn4u95U5Gyn-9" edge="1">
          <mxGeometry width="50" height="50" relative="1" as="geometry">
            <mxPoint x="460" y="260" as="sourcePoint" />
            <mxPoint x="380" y="340" as="targetPoint" />
          </mxGeometry>
        </mxCell>
        <mxCell id="h4LoOMoCMPn4u95U5Gyn-11" value="" style="endArrow=classic;html=1;rounded=0;fontSize=12;startSize=8;endSize=8;curved=1;entryX=0;entryY=0.5;entryDx=0;entryDy=0;" parent="1" target="h4LoOMoCMPn4u95U5Gyn-8" edge="1">
          <mxGeometry width="50" height="50" relative="1" as="geometry">
            <mxPoint x="490" y="350" as="sourcePoint" />
            <mxPoint x="350" y="363" as="targetPoint" />
          </mxGeometry>
        </mxCell>
        <mxCell id="h4LoOMoCMPn4u95U5Gyn-13" value="view rooms" style="rounded=1;whiteSpace=wrap;html=1;" parent="1" vertex="1">
          <mxGeometry x="20" y="280" width="120" height="60" as="geometry" />
        </mxCell>
        <mxCell id="h4LoOMoCMPn4u95U5Gyn-16" value="" style="rhombus;whiteSpace=wrap;html=1;" parent="1" vertex="1">
          <mxGeometry x="265" y="420" width="30" height="50" as="geometry" />
        </mxCell>
        <mxCell id="h4LoOMoCMPn4u95U5Gyn-18" value="" style="endArrow=classic;html=1;rounded=0;fontSize=12;startSize=8;endSize=8;curved=1;exitX=0.5;exitY=1;exitDx=0;exitDy=0;entryX=0.5;entryY=0;entryDx=0;entryDy=0;" parent="1" source="h4LoOMoCMPn4u95U5Gyn-9" target="h4LoOMoCMPn4u95U5Gyn-16" edge="1">
          <mxGeometry width="50" height="50" relative="1" as="geometry">
            <mxPoint x="460" y="560" as="sourcePoint" />
            <mxPoint x="510" y="510" as="targetPoint" />
          </mxGeometry>
        </mxCell>
        <mxCell id="h4LoOMoCMPn4u95U5Gyn-19" value="Book room" style="rounded=1;whiteSpace=wrap;html=1;" parent="1" vertex="1">
          <mxGeometry x="220" y="510" width="120" height="60" as="geometry" />
        </mxCell>
        <mxCell id="h4LoOMoCMPn4u95U5Gyn-20" value="" style="endArrow=classic;html=1;rounded=0;fontSize=12;startSize=8;endSize=8;curved=1;exitX=0.5;exitY=1;exitDx=0;exitDy=0;entryX=0.5;entryY=0;entryDx=0;entryDy=0;" parent="1" source="h4LoOMoCMPn4u95U5Gyn-16" target="h4LoOMoCMPn4u95U5Gyn-19" edge="1">
          <mxGeometry width="50" height="50" relative="1" as="geometry">
            <mxPoint x="460" y="560" as="sourcePoint" />
            <mxPoint x="510" y="510" as="targetPoint" />
          </mxGeometry>
        </mxCell>
        <mxCell id="h4LoOMoCMPn4u95U5Gyn-21" value="identify issue" style="rounded=1;whiteSpace=wrap;html=1;" parent="1" vertex="1">
          <mxGeometry x="590" y="500" width="120" height="60" as="geometry" />
        </mxCell>
        <mxCell id="h4LoOMoCMPn4u95U5Gyn-22" value="" style="rhombus;whiteSpace=wrap;html=1;" parent="1" vertex="1">
          <mxGeometry x="635" y="409.91" width="30" height="50" as="geometry" />
        </mxCell>
        <mxCell id="h4LoOMoCMPn4u95U5Gyn-23" value="" style="endArrow=classic;html=1;rounded=0;fontSize=12;startSize=8;endSize=8;curved=1;exitX=0.5;exitY=1;exitDx=0;exitDy=0;entryX=0.5;entryY=0;entryDx=0;entryDy=0;" parent="1" target="h4LoOMoCMPn4u95U5Gyn-22" edge="1">
          <mxGeometry width="50" height="50" relative="1" as="geometry">
            <mxPoint x="650" y="372.91" as="sourcePoint" />
            <mxPoint x="880" y="499.91" as="targetPoint" />
          </mxGeometry>
        </mxCell>
        <mxCell id="h4LoOMoCMPn4u95U5Gyn-24" value="" style="endArrow=classic;html=1;rounded=0;fontSize=12;startSize=8;endSize=8;curved=1;exitX=0.5;exitY=1;exitDx=0;exitDy=0;entryX=0.5;entryY=0;entryDx=0;entryDy=0;" parent="1" source="h4LoOMoCMPn4u95U5Gyn-22" edge="1">
          <mxGeometry width="50" height="50" relative="1" as="geometry">
            <mxPoint x="830" y="549.91" as="sourcePoint" />
            <mxPoint x="650" y="502.91" as="targetPoint" />
          </mxGeometry>
        </mxCell>
        <mxCell id="h4LoOMoCMPn4u95U5Gyn-27" value="Resolve issue" style="rounded=1;whiteSpace=wrap;html=1;" parent="1" vertex="1">
          <mxGeometry x="425" y="590" width="120" height="60" as="geometry" />
        </mxCell>
        <mxCell id="h4LoOMoCMPn4u95U5Gyn-35" value="" style="rhombus;whiteSpace=wrap;html=1;" parent="1" vertex="1">
          <mxGeometry x="620" y="600" width="30" height="50" as="geometry" />
        </mxCell>
        <mxCell id="h4LoOMoCMPn4u95U5Gyn-37" value="" style="endArrow=classic;html=1;rounded=0;fontSize=12;startSize=8;endSize=8;curved=1;exitX=0.5;exitY=1;exitDx=0;exitDy=0;entryX=0.5;entryY=0;entryDx=0;entryDy=0;" parent="1" source="h4LoOMoCMPn4u95U5Gyn-21" target="h4LoOMoCMPn4u95U5Gyn-35" edge="1">
          <mxGeometry width="50" height="50" relative="1" as="geometry">
            <mxPoint x="460" y="560" as="sourcePoint" />
            <mxPoint x="510" y="510" as="targetPoint" />
          </mxGeometry>
        </mxCell>
        <mxCell id="h4LoOMoCMPn4u95U5Gyn-38" value="" style="endArrow=classic;html=1;rounded=0;fontSize=12;startSize=8;endSize=8;curved=1;exitX=0;exitY=0.5;exitDx=0;exitDy=0;entryX=1;entryY=0.5;entryDx=0;entryDy=0;" parent="1" source="h4LoOMoCMPn4u95U5Gyn-35" target="h4LoOMoCMPn4u95U5Gyn-27" edge="1">
          <mxGeometry width="50" height="50" relative="1" as="geometry">
            <mxPoint x="460" y="560" as="sourcePoint" />
            <mxPoint x="510" y="510" as="targetPoint" />
          </mxGeometry>
        </mxCell>
        <mxCell id="h4LoOMoCMPn4u95U5Gyn-39" value="" style="endArrow=classic;html=1;rounded=0;fontSize=12;startSize=8;endSize=8;curved=1;exitX=0.5;exitY=0;exitDx=0;exitDy=0;entryX=1;entryY=0.5;entryDx=0;entryDy=0;" parent="1" source="h4LoOMoCMPn4u95U5Gyn-27" target="h4LoOMoCMPn4u95U5Gyn-16" edge="1">
          <mxGeometry width="50" height="50" relative="1" as="geometry">
            <mxPoint x="460" y="560" as="sourcePoint" />
            <mxPoint x="510" y="510" as="targetPoint" />
          </mxGeometry>
        </mxCell>
        <mxCell id="h4LoOMoCMPn4u95U5Gyn-40" value="Order food" style="rounded=1;whiteSpace=wrap;html=1;" parent="1" vertex="1">
          <mxGeometry x="40" y="399.90999999999997" width="120" height="60" as="geometry" />
        </mxCell>
        <mxCell id="h4LoOMoCMPn4u95U5Gyn-41" value="" style="endArrow=classic;html=1;rounded=0;fontSize=12;startSize=8;endSize=8;curved=1;exitX=0;exitY=0.5;exitDx=0;exitDy=0;entryX=1;entryY=0.5;entryDx=0;entryDy=0;" parent="1" source="h4LoOMoCMPn4u95U5Gyn-16" target="h4LoOMoCMPn4u95U5Gyn-40" edge="1">
          <mxGeometry width="50" height="50" relative="1" as="geometry">
            <mxPoint x="460" y="560" as="sourcePoint" />
            <mxPoint x="510" y="510" as="targetPoint" />
          </mxGeometry>
        </mxCell>
        <mxCell id="h4LoOMoCMPn4u95U5Gyn-42" value="Request service" style="rounded=1;whiteSpace=wrap;html=1;" parent="1" vertex="1">
          <mxGeometry x="210" y="680" width="120" height="60" as="geometry" />
        </mxCell>
        <mxCell id="h4LoOMoCMPn4u95U5Gyn-43" value="" style="endArrow=classic;html=1;rounded=0;fontSize=12;startSize=8;endSize=8;curved=1;exitX=0.5;exitY=1;exitDx=0;exitDy=0;entryX=0.5;entryY=0;entryDx=0;entryDy=0;" parent="1" source="h4LoOMoCMPn4u95U5Gyn-19" target="h4LoOMoCMPn4u95U5Gyn-42" edge="1">
          <mxGeometry width="50" height="50" relative="1" as="geometry">
            <mxPoint x="460" y="570" as="sourcePoint" />
            <mxPoint x="510" y="520" as="targetPoint" />
          </mxGeometry>
        </mxCell>
        <mxCell id="h4LoOMoCMPn4u95U5Gyn-44" value="Checkout" style="rounded=1;whiteSpace=wrap;html=1;" parent="1" vertex="1">
          <mxGeometry x="630" y="750" width="120" height="60" as="geometry" />
        </mxCell>
        <mxCell id="h4LoOMoCMPn4u95U5Gyn-45" value="feed back" style="rounded=1;whiteSpace=wrap;html=1;" parent="1" vertex="1">
          <mxGeometry x="40" y="610" width="120" height="60" as="geometry" />
        </mxCell>
        <mxCell id="h4LoOMoCMPn4u95U5Gyn-46" value="" style="endArrow=classic;html=1;rounded=0;fontSize=12;startSize=8;endSize=8;curved=1;exitX=0.5;exitY=1;exitDx=0;exitDy=0;entryX=0.5;entryY=0;entryDx=0;entryDy=0;" parent="1" source="h4LoOMoCMPn4u95U5Gyn-40" target="h4LoOMoCMPn4u95U5Gyn-45" edge="1">
          <mxGeometry width="50" height="50" relative="1" as="geometry">
            <mxPoint x="460" y="570" as="sourcePoint" />
            <mxPoint x="130" y="560" as="targetPoint" />
          </mxGeometry>
        </mxCell>
        <mxCell id="h4LoOMoCMPn4u95U5Gyn-47" value="" style="endArrow=classic;html=1;rounded=0;fontSize=12;startSize=8;endSize=8;curved=1;exitX=0;exitY=0.5;exitDx=0;exitDy=0;entryX=0.75;entryY=0;entryDx=0;entryDy=0;" parent="1" source="h4LoOMoCMPn4u95U5Gyn-19" target="h4LoOMoCMPn4u95U5Gyn-45" edge="1">
          <mxGeometry width="50" height="50" relative="1" as="geometry">
            <mxPoint x="110" y="470" as="sourcePoint" />
            <mxPoint x="110" y="620" as="targetPoint" />
          </mxGeometry>
        </mxCell>
        <mxCell id="h4LoOMoCMPn4u95U5Gyn-48" value="" style="endArrow=classic;html=1;rounded=0;fontSize=12;startSize=8;endSize=8;curved=1;exitX=0.25;exitY=0;exitDx=0;exitDy=0;entryX=1;entryY=0.5;entryDx=0;entryDy=0;" parent="1" source="h4LoOMoCMPn4u95U5Gyn-42" target="h4LoOMoCMPn4u95U5Gyn-45" edge="1">
          <mxGeometry width="50" height="50" relative="1" as="geometry">
            <mxPoint x="120" y="480" as="sourcePoint" />
            <mxPoint x="120" y="630" as="targetPoint" />
          </mxGeometry>
        </mxCell>
        <mxCell id="h4LoOMoCMPn4u95U5Gyn-50" value="" style="endArrow=classic;html=1;rounded=0;fontSize=12;startSize=8;endSize=8;curved=1;exitX=0.25;exitY=0;exitDx=0;exitDy=0;entryX=0.5;entryY=1;entryDx=0;entryDy=0;" parent="1" source="h4LoOMoCMPn4u95U5Gyn-44" target="h4LoOMoCMPn4u95U5Gyn-6" edge="1">
          <mxGeometry width="50" height="50" relative="1" as="geometry">
            <mxPoint x="460" y="570" as="sourcePoint" />
            <mxPoint x="510" y="520" as="targetPoint" />
          </mxGeometry>
        </mxCell>
        <mxCell id="h4LoOMoCMPn4u95U5Gyn-51" value="" style="rhombus;whiteSpace=wrap;html=1;" parent="1" vertex="1">
          <mxGeometry x="675" y="870" width="30" height="50" as="geometry" />
        </mxCell>
        <mxCell id="h4LoOMoCMPn4u95U5Gyn-52" value="" style="endArrow=classic;html=1;rounded=0;fontSize=12;startSize=8;endSize=8;curved=1;exitX=0.5;exitY=1;exitDx=0;exitDy=0;entryX=0.5;entryY=0;entryDx=0;entryDy=0;" parent="1" source="h4LoOMoCMPn4u95U5Gyn-44" target="h4LoOMoCMPn4u95U5Gyn-51" edge="1">
          <mxGeometry width="50" height="50" relative="1" as="geometry">
            <mxPoint x="460" y="570" as="sourcePoint" />
            <mxPoint x="510" y="520" as="targetPoint" />
          </mxGeometry>
        </mxCell>
        <mxCell id="h4LoOMoCMPn4u95U5Gyn-53" value="Payment" style="rounded=1;whiteSpace=wrap;html=1;" parent="1" vertex="1">
          <mxGeometry x="458" y="860" width="120" height="60" as="geometry" />
        </mxCell>
        <mxCell id="h4LoOMoCMPn4u95U5Gyn-54" value="" style="endArrow=classic;html=1;rounded=0;fontSize=12;startSize=8;endSize=8;curved=1;exitX=0;exitY=0.5;exitDx=0;exitDy=0;entryX=1;entryY=0.5;entryDx=0;entryDy=0;" parent="1" source="h4LoOMoCMPn4u95U5Gyn-51" target="h4LoOMoCMPn4u95U5Gyn-53" edge="1">
          <mxGeometry width="50" height="50" relative="1" as="geometry">
            <mxPoint x="460" y="760" as="sourcePoint" />
            <mxPoint x="510" y="710" as="targetPoint" />
          </mxGeometry>
        </mxCell>
        <mxCell id="h4LoOMoCMPn4u95U5Gyn-55" value="" style="endArrow=classic;html=1;rounded=0;fontSize=12;startSize=8;endSize=8;curved=1;exitX=0;exitY=0.5;exitDx=0;exitDy=0;entryX=1;entryY=0;entryDx=0;entryDy=0;" parent="1" source="h4LoOMoCMPn4u95U5Gyn-44" target="h4LoOMoCMPn4u95U5Gyn-45" edge="1">
          <mxGeometry width="50" height="50" relative="1" as="geometry">
            <mxPoint x="460" y="760" as="sourcePoint" />
            <mxPoint x="510" y="710" as="targetPoint" />
          </mxGeometry>
        </mxCell>
        <mxCell id="h4LoOMoCMPn4u95U5Gyn-56" value="Exit" style="rounded=1;whiteSpace=wrap;html=1;" parent="1" vertex="1">
          <mxGeometry x="240" y="860" width="120" height="60" as="geometry" />
        </mxCell>
        <mxCell id="h4LoOMoCMPn4u95U5Gyn-57" value="" style="endArrow=classic;html=1;rounded=0;fontSize=12;startSize=8;endSize=8;curved=1;exitX=0;exitY=0.5;exitDx=0;exitDy=0;entryX=1;entryY=0.5;entryDx=0;entryDy=0;" parent="1" source="h4LoOMoCMPn4u95U5Gyn-53" target="h4LoOMoCMPn4u95U5Gyn-56" edge="1">
          <mxGeometry width="50" height="50" relative="1" as="geometry">
            <mxPoint x="460" y="760" as="sourcePoint" />
            <mxPoint x="510" y="710" as="targetPoint" />
          </mxGeometry>
        </mxCell>
        <mxCell id="h4LoOMoCMPn4u95U5Gyn-58" value="" style="ellipse;whiteSpace=wrap;html=1;aspect=fixed;" parent="1" vertex="1">
          <mxGeometry x="265" y="990" width="40" height="40" as="geometry" />
        </mxCell>
        <mxCell id="h4LoOMoCMPn4u95U5Gyn-59" value="" style="ellipse;whiteSpace=wrap;html=1;aspect=fixed;strokeColor=#000000;fillColor=#000000;" parent="1" vertex="1">
          <mxGeometry x="270" y="995" width="30" height="30" as="geometry" />
        </mxCell>
        <mxCell id="h4LoOMoCMPn4u95U5Gyn-61" value="" style="endArrow=classic;html=1;rounded=0;fontSize=12;startSize=8;endSize=8;curved=1;exitX=0.5;exitY=1;exitDx=0;exitDy=0;entryX=0.5;entryY=0;entryDx=0;entryDy=0;" parent="1" source="h4LoOMoCMPn4u95U5Gyn-56" target="h4LoOMoCMPn4u95U5Gyn-58" edge="1">
          <mxGeometry width="50" height="50" relative="1" as="geometry">
            <mxPoint x="460" y="780" as="sourcePoint" />
            <mxPoint x="510" y="730" as="targetPoint" />
          </mxGeometry>
        </mxCell>
        <mxCell id="4oGWHnDfo1bWH9J24VEy-3" value="" style="endArrow=classic;html=1;rounded=0;fontSize=12;startSize=8;endSize=8;curved=1;exitX=0;exitY=0.5;exitDx=0;exitDy=0;" edge="1" parent="1" source="h4LoOMoCMPn4u95U5Gyn-6" target="h4LoOMoCMPn4u95U5Gyn-9">
          <mxGeometry width="50" height="50" relative="1" as="geometry">
            <mxPoint x="458" y="348" as="sourcePoint" />
            <mxPoint x="380" y="340" as="targetPoint" />
          </mxGeometry>
        </mxCell>
        <mxCell id="h4LoOMoCMPn4u95U5Gyn-9" value="Authentication successful" style="rounded=1;whiteSpace=wrap;html=1;" parent="1" vertex="1">
          <mxGeometry x="270" y="309.99999999999994" width="120" height="60" as="geometry" />
        </mxCell>
        <mxCell id="4oGWHnDfo1bWH9J24VEy-6" value="" style="endArrow=classic;html=1;rounded=0;exitX=0;exitY=0.5;exitDx=0;exitDy=0;entryX=1;entryY=1;entryDx=0;entryDy=0;" edge="1" parent="1" target="h4LoOMoCMPn4u95U5Gyn-1">
          <mxGeometry width="50" height="50" relative="1" as="geometry">
            <mxPoint x="295" y="310" as="sourcePoint" />
            <mxPoint x="185" y="120" as="targetPoint" />
          </mxGeometry>
        </mxCell>
        <mxCell id="4oGWHnDfo1bWH9J24VEy-11" value="" style="endArrow=classic;html=1;rounded=0;exitX=0;exitY=0.75;exitDx=0;exitDy=0;entryX=1;entryY=0.5;entryDx=0;entryDy=0;" edge="1" parent="1" source="h4LoOMoCMPn4u95U5Gyn-9" target="h4LoOMoCMPn4u95U5Gyn-13">
          <mxGeometry width="50" height="50" relative="1" as="geometry">
            <mxPoint x="390" y="370" as="sourcePoint" />
            <mxPoint x="440" y="320" as="targetPoint" />
          </mxGeometry>
        </mxCell>
        <mxCell id="4oGWHnDfo1bWH9J24VEy-12" value="" style="endArrow=classic;html=1;rounded=0;exitX=0.25;exitY=1;exitDx=0;exitDy=0;entryX=0.75;entryY=0;entryDx=0;entryDy=0;" edge="1" parent="1" source="h4LoOMoCMPn4u95U5Gyn-1" target="h4LoOMoCMPn4u95U5Gyn-13">
          <mxGeometry width="50" height="50" relative="1" as="geometry">
            <mxPoint x="390" y="370" as="sourcePoint" />
            <mxPoint x="440" y="320" as="targetPoint" />
          </mxGeometry>
        </mxCell>
      </root>
    </mxGraphModel>
  </diagram>
</mxfile>
